<svg xmlns:dc="http://purl.org/dc/elements/1.1/" xmlns:cc="http://creativecommons.org/ns#" xmlns:rdf="http://www.w3.org/1999/02/22-rdf-syntax-ns#" xmlns:svg="http://www.w3.org/2000/svg" xmlns="http://www.w3.org/2000/svg" xmlns:sodipodi="http://sodipodi.sourceforge.net/DTD/sodipodi-0.dtd" xmlns:inkscape="http://www.inkscape.org/namespaces/inkscape" version="1.1" x="0px" y="0px" viewBox="0 0 100 125"><g transform="translate(0,-952.36218)"><path style="text-indent:0;text-transform:none;direction:ltr;block-progression:tb;baseline-shift:baseline;color:#000000;enable-background:accumulate;" d="m 47.081021,960.39419 c -22.20494,0.57625 -40.0810205,18.64699 -40.0810205,40.80141 0,7.4456 2.03064,14.4307 5.5554705,20.4473 l 0,0.2801 0.15694,0 c 7.17335,12.0254 20.38379,20.105 35.467149,20.105 7.30258,0 14.16607,-1.9096 20.118979,-5.2286 -5.269839,0.4107 -10.563929,-1.4973 -14.343799,-5.2908 -1.29538,1.0337 -2.71643,1.7169 -4.23722,1.9919 l 0,-8.7454 c -1.31177,-3.7954 -1.23577,-7.8412 0,-11.5152 l 0,-10.2392 8.85109,0 c 5.31545,-2.7056 11.442499,-2.5392 16.478109,0 l 8.22335,0 c -0.11782,2.2797 -0.46753,4.4882 -1.00438,6.629 1.67776,3.1607 2.7041,6.9539 2.60511,10.0213 2.84986,-5.5491 4.48832,-11.8126 4.48832,-18.4554 0,-22.15951 -17.90038,-40.23308 -40.112399,-40.80141 -0.74396,-0.058 -1.46994,-0.0241 -2.1657,0 z m -11.64452,8.27856 c -1.79277,2.63934 -3.33535,5.8364 -4.61387,9.43006 l -9.00803,0 c 3.68291,-4.13975 8.33549,-7.39903 13.6219,-9.43006 z m 25.48613,0 c 5.27086,2.03008 9.910089,5.30023 13.590509,9.43006 l -8.976639,0 c -1.278531,-3.59366 -2.82112,-6.79072 -4.613871,-9.43006 z m -11.20511,0.18674 c 3.90065,0.70668 7.10886,4.11247 9.41606,9.24332 l -9.41606,0 z m -6.02628,1.15152 0,8.0918 -6.46569,0 c 1.69446,-3.76822 3.88372,-6.57567 6.46569,-8.0918 z m -26.14525,14.06728 11.487589,0 c -0.96073,4.00908 -1.578699,8.36608 -1.820439,12.94688 l -13.93577,0 c 0.55718,-4.66335 2.0506,-9.0379 4.26862,-12.94688 z m 17.608019,0 8.53723,0 0,12.94688 -10.45182,0 c 0.24365,-4.71047 0.89021,-9.09634 1.91459,-12.94688 z m 14.56351,0 11.48759,0 c 1.02439,3.85054 1.67095,8.23641 1.9146,12.94688 l -13.40219,0 z m 17.608029,0 11.48759,0 c 2.2249,3.91315 3.70985,8.27919 4.26861,12.94688 l -13.93576,0 c -0.24175,-4.5808 -0.85971,-8.9378 -1.82044,-12.94688 z m -0.50219,17.89541 c -9.400779,-10e-4 -17.075819,7.6416 -17.074449,16.9616 10e-4,9.3199 7.67368,16.9291 17.074449,16.9305 3.75039,4e-4 7.21948,-1.2194 10.04379,-3.2678 l 11.86424,11.7642 4.26861,-4.2326 -11.95839,-11.8576 c 1.79809,-2.6807 2.85671,-5.8912 2.8562,-9.3367 -10e-4,-9.32 -7.67368,-16.9603 -17.07445,-16.9616 z m -53.734309,1.027 14.02993,0 c 0.10266,4.5428 0.5711,8.9028 1.38102,12.9468 l -12.1781,0 c -1.86377,-3.9615 -2.99527,-8.3358 -3.23285,-12.9468 z m 20.05621,0 10.54598,0 0,12.9468 -9.10219,0 c -0.84952,-3.9217 -1.341399,-8.2915 -1.44379,-12.9468 z m 33.678099,4.9796 c 6.1412,8e-4 11.04728,4.8665 11.04817,10.955 3.5e-4,2.3964 -0.77339,4.5871 -2.07153,6.38 l -2.573719,2.5521 c -1.805091,1.2652 -4.00401,2.0233 -6.40292,2.0229 -6.141209,-9e-4 -11.047279,-4.8666 -11.048179,-10.955 -8.8e-4,-6.0885 4.90696,-10.9559 11.048179,-10.955 z M 19.9,1021.923 l 10.10657,0 c 1.39185,4.5616 3.23016,8.566 5.39854,11.7642 -6.2392,-2.403 -11.59294,-6.5169 -15.50511,-11.7642 z m 16.38394,0 7.407301,0 0,10.426 c -3.09758,-1.8155 -5.60937,-5.4784 -7.407301,-10.426 z" fill="#000000" fill-opacity="1" stroke="none" marker="none" visibility="visible" display="inline" overflow="visible"/></g><text x="0" y="115" fill="#000000" font-size="5px" font-weight="bold" font-family="'Helvetica Neue', Helvetica, Arial-Unicode, Arial, Sans-serif">Created by AFY Studio</text><text x="0" y="120" fill="#000000" font-size="5px" font-weight="bold" font-family="'Helvetica Neue', Helvetica, Arial-Unicode, Arial, Sans-serif">from the Noun Project</text></svg>